<svg xmlns="http://www.w3.org/2000/svg" viewBox="56.11 44.21 387.78 383.35"><g id="freepik--background-simple--inject-20"><path d="M128.67,346.25c31.56,18.34,74,21.3,109.32,12.38,17.74-4.49,30.92-13.86,46.21-22.78,21.42-12.51,37.44-11.19,61.43-12.61,69.83-4.12,89.8-71.3,82.29-117.83-9.12-56.58-60.8-101.19-122.64-105.92-41.63-3.18-80.09,2.63-112.68,20.42-25.44,13.89-28.33,35.8-32.48,61.18-3.17,19.37-5.19,41-17.11,57.76-10.91,15.33-26.76,6.48-40.64,17C67,282.53,102.09,330.8,128.67,346.25Z" style="fill:#407BFF"/><path d="M128.67,346.25c31.56,18.34,74,21.3,109.32,12.38,17.74-4.49,30.92-13.86,46.21-22.78,21.42-12.51,37.44-11.19,61.43-12.61,69.83-4.12,89.8-71.3,82.29-117.83-9.12-56.58-60.8-101.19-122.64-105.92-41.63-3.18-80.09,2.63-112.68,20.42-25.44,13.89-28.33,35.8-32.48,61.18-3.17,19.37-5.19,41-17.11,57.76-10.91,15.33-26.76,6.48-40.64,17C67,282.53,102.09,330.8,128.67,346.25Z" style="fill:#fff;opacity:0.9"/></g><g id="freepik--Shadow--inject-20"><ellipse id="freepik--path--inject-20" cx="250" cy="416.24" rx="193.89" ry="11.32" style="fill:#f5f5f5"/></g><g id="freepik--Speedometer--inject-20"><path d="M166.53,113.94l-.63-.78a166.31,166.31,0,0,1,13.7-10l.55.84A164.35,164.35,0,0,0,166.53,113.94Z" style="fill:#263238"/><path d="M159.15,120.25l-.68-.74c1.34-1.21,2.72-2.42,4.09-3.59l.65.77C161.84,117.85,160.48,119.05,159.15,120.25Z" style="fill:#263238"/><ellipse cx="216.41" cy="181.2" rx="115.24" ry="81.19" transform="translate(-65.78 187.53) rotate(-41.22)" style="fill:#263238"/><ellipse cx="216.41" cy="181.2" rx="99.97" ry="70.43" transform="translate(-65.78 187.53) rotate(-41.22)" style="fill:#fff"/><path d="M237.15,103.89c-43.29,3.51-87.67,41-99.13,83.66l156.77-12.69C306.25,132.16,280.44,100.39,237.15,103.89Z" style="fill:#407BFF"/><path d="M138,187.55l78.39-6.35L175.65,131C157.71,146.16,143.75,166.2,138,187.55Z" style="fill:#fff;opacity:0.7000000000000001"/><path d="M237.15,103.89c-21.64,1.76-43.56,12-61.5,27.13l40.76,50.18,20.74-77.31Z" style="fill:#fff;opacity:0.4"/><path d="M237.15,103.89,216.41,181.2l70.09-59.15C276.07,109.21,258.8,102.14,237.15,103.89Z" style="fill:#fff;opacity:0.1"/><ellipse cx="216.41" cy="181.2" rx="40.79" ry="28.73" transform="translate(-65.78 187.53) rotate(-41.22)" style="fill:#fff"/><ellipse cx="216.41" cy="181.2" rx="23.8" ry="16.77" transform="translate(-65.78 187.53) rotate(-41.22)" style="fill:#263238"/><path d="M275.08,139.85a236.29,236.29,0,0,0-52.63,27.9l7.37,13.2A257.66,257.66,0,0,0,275.08,139.85Z" style="fill:#263238"/><path d="M147,217.06a1.51,1.51,0,0,1-1.55-1.84,2.73,2.73,0,0,1,2.36-2.16L234,206.23a1.51,1.51,0,0,1,1.7,1.83,2.7,2.7,0,0,1-2.35,2.15l-86.12,6.84Z" style="fill:#407BFF"/><path d="M221.55,225.26a1.5,1.5,0,0,1-1.55-1.84,2.7,2.7,0,0,1,2.36-2.15l28-2.23a1.51,1.51,0,0,1,1.71,1.83,2.72,2.72,0,0,1-2.36,2.16l-28,2.22Z" style="fill:#407BFF"/><path d="M79.15,261.08a1.51,1.51,0,0,1-1.55-1.84A2.72,2.72,0,0,1,80,257.09l28-2.23a1.52,1.52,0,0,1,1.71,1.83,2.72,2.72,0,0,1-2.35,2.16l-28,2.22Z" style="fill:#407BFF"/><path d="M104.09,244.71a1.5,1.5,0,0,1-1.54-1.84,2.71,2.71,0,0,1,2.35-2.15l84-6.67a1.52,1.52,0,0,1,1.71,1.83,2.73,2.73,0,0,1-2.36,2.16l-84,6.66Z" style="fill:#407BFF"/></g></svg>