<svg xmlns="http://www.w3.org/2000/svg" viewBox="0 0 500 500"><g id="freepik--background-simple--inject-3"><path d="M423.87,68.81l-.41-2.31c-3.41-19.48-17-35.71-35.65-41.67a52.29,52.29,0,0,0-7.34-1.76A55.65,55.65,0,0,0,331,40.76c-7.19,8.06-12.41,18.54-22,23.43-12.48,6.36-27.32.92-40.12-4.54s-27.66-10.87-40.11-4.45c-7.8,4-12.92,12.06-15.68,20.43-7.33,22.18.23,47.51,15.71,64.67s37.81,26.88,60.54,30.85c31.84,5.57,66.28.19,93-18.47S426.74,101.31,423.87,68.81Z" style="fill:#f5f5f5"></path><circle cx="392.98" cy="398.18" r="25.37" style="fill:#f5f5f5"></circle></g><g id="freepik--Floor--inject-3"><path d="M488.9,337.54c0,.15-100.64.26-224.76.26s-224.79-.11-224.79-.26,100.62-.26,224.79-.26S488.9,337.4,488.9,337.54Z" style="fill:#263238"></path><path d="M471.12,458.31c0,.14-99,.26-221.11.26s-221.13-.12-221.13-.26,99-.26,221.13-.26S471.12,458.17,471.12,458.31Z" style="fill:#263238"></path></g><g id="freepik--Plants--inject-3"><path d="M334.25,418.82a7.69,7.69,0,0,1,3.49,4.87,13.56,13.56,0,0,1-.1,6.11c-.84,3.88-3.48,7.62-6.2,10.51-3-3.22-3.26-8.34-3.23-10.94.06-4.11,2.67-11.51,6-10.55" style="fill:#263238"></path><path d="M334.62,447.19a6.52,6.52,0,0,1,2.73-6,8.71,8.71,0,0,1,6.56-1.34,3.66,3.66,0,0,1,2.67,1.54,2.79,2.79,0,0,1-.25,2.82,5.6,5.6,0,0,1-2.29,1.84c-3.05,1.51-6.28,2.4-9.42,1.1" style="fill:#263238"></path><path d="M329.15,458.8a3.86,3.86,0,0,1,.2-.79l.62-2.14a22.94,22.94,0,0,1,3-6.74,14.1,14.1,0,0,1,5.55-4.81,9.11,9.11,0,0,1,2.13-.69,5.51,5.51,0,0,1,.6-.09h.21a15.49,15.49,0,0,0-2.86,1,14.58,14.58,0,0,0-5.39,4.78,24.79,24.79,0,0,0-3,6.64c-.29.89-.53,1.61-.71,2.11A4.42,4.42,0,0,1,329.15,458.8Z" style="fill:#263238"></path><path d="M332.76,424.63a2,2,0,0,1,0,.36c0,.26,0,.6,0,1,0,.89-.12,2.17-.23,3.75-.22,3.15-.58,7.51-1.09,12.32s-1.08,9.14-1.53,12.27c-.22,1.57-.42,2.84-.56,3.71-.07.41-.13.74-.17,1a1.5,1.5,0,0,1-.08.35,1.84,1.84,0,0,1,0-.35c0-.27.07-.6.12-1,.12-.91.28-2.17.47-3.71.4-3.14.93-7.48,1.44-12.28s.91-9.16,1.18-12.31c.13-1.55.24-2.82.32-3.73,0-.42.07-.76.1-1A1.41,1.41,0,0,1,332.76,424.63Z" style="fill:#263238"></path><path d="M328.65,449a15.28,15.28,0,0,0-7.16-12c-1.05-.64-2.46-1.14-3.45-.41s-.94,2.23-.61,3.42a13,13,0,0,0,11.11,9.28" style="fill:#263238"></path><path d="M321.65,440.8a3.69,3.69,0,0,1,.67.38c.21.13.47.29.75.5s.62.44.94.74a11.83,11.83,0,0,1,1.07,1,15.42,15.42,0,0,1,1.12,1.24,17.21,17.21,0,0,1,2,3.24,16.42,16.42,0,0,1,1.19,3.64,15,15,0,0,1,.22,1.65,12.25,12.25,0,0,1,.05,1.45,10.68,10.68,0,0,1-.06,1.2,8.27,8.27,0,0,1-.12.9,4.46,4.46,0,0,1-.16.75c-.07,0,.16-1.09.14-2.85a12.6,12.6,0,0,0-.09-1.43,14.79,14.79,0,0,0-.24-1.62,16.38,16.38,0,0,0-3.16-6.77c-.37-.45-.72-.87-1.08-1.24s-.71-.7-1-1C322.56,441.41,321.61,440.85,321.65,440.8Z" style="fill:#263238"></path><path d="M234.41,458.68c-.15.05-1.15-2.95-2.89-6.41s-3.53-6.06-3.4-6.15a7,7,0,0,1,1.32,1.61,35.68,35.68,0,0,1,4.47,8.93A7.72,7.72,0,0,1,234.41,458.68Z" style="fill:#263238"></path><path d="M235.21,438.66a17.05,17.05,0,0,1,.4,2.82c.21,1.74.52,4.14,1,6.78s1,5,1.35,6.71a19,19,0,0,1,.57,2.79,13.45,13.45,0,0,1-.93-2.7,67.81,67.81,0,0,1-1.51-6.71c-.45-2.66-.7-5.08-.82-6.84A14.15,14.15,0,0,1,235.21,438.66Z" style="fill:#263238"></path><path d="M244.2,447.85c.15,0-.21,2.23-.31,5s.05,4.95-.1,5a20.1,20.1,0,0,1,.41-9.94Z" style="fill:#263238"></path><path d="M419.87,442.41a9.32,9.32,0,0,1,1.23,2.12,36.35,36.35,0,0,1,2.14,5.53,35.88,35.88,0,0,1,1.22,5.8,8.82,8.82,0,0,1,.13,2.45,14.15,14.15,0,0,1-.49-2.4c-.28-1.47-.71-3.5-1.36-5.7s-1.4-4.14-2-5.53A14.74,14.74,0,0,1,419.87,442.41Z" style="fill:#263238"></path><path d="M429.88,437.72a20.28,20.28,0,0,1-.05,3c-.07,1.86-.17,4.44-.23,7.28s0,5.42,0,7.29a18,18,0,0,1-.07,3,15.32,15.32,0,0,1-.3-3c-.1-1.87-.17-4.45-.12-7.31s.22-5.43.39-7.29A15.85,15.85,0,0,1,429.88,437.72Z" style="fill:#263238"></path><path d="M436.41,448.4a38.36,38.36,0,0,1-.74,4.89,40.92,40.92,0,0,1-.81,4.88,16.54,16.54,0,0,1,.3-5A17,17,0,0,1,436.41,448.4Z" style="fill:#263238"></path></g><g id="freepik--Birds--inject-3"><path d="M374.68,87.38s-.6-.2-1.71-.45a13.51,13.51,0,0,0-4.76-.18,12.69,12.69,0,0,0-6.42,2.77,13.24,13.24,0,0,0-4.53,7.19l0,.08-.14.51-.19-.48a14.31,14.31,0,0,0-5.43-6.55,13.75,13.75,0,0,0-6.63-2.21,14.52,14.52,0,0,0-4.73.43c-1.09.29-1.67.54-1.68.51a1.83,1.83,0,0,1,.41-.2,10.43,10.43,0,0,1,1.23-.44A14.12,14.12,0,0,1,351.65,90a14.43,14.43,0,0,1,5.58,6.69l-.33,0,0-.08a13.43,13.43,0,0,1,4.67-7.36,12.92,12.92,0,0,1,6.59-2.77,13.09,13.09,0,0,1,4.82.3,8.67,8.67,0,0,1,1.26.4A2.89,2.89,0,0,1,374.68,87.38Z" style="fill:#263238"></path><path d="M379.61,61.52s-.33-.09-.94-.22a7.68,7.68,0,0,0-2.61-.07,7,7,0,0,0-3.49,1.52,7.25,7.25,0,0,0-2.46,3.92l0,0-.13.52-.2-.49a7.73,7.73,0,0,0-2.95-3.57A7.47,7.47,0,0,0,363.2,62a8,8,0,0,0-2.59.21c-.6.15-.92.28-.93.25s.07,0,.22-.12a3.92,3.92,0,0,1,.68-.26,7.72,7.72,0,0,1,6.41.87,8,8,0,0,1,3.1,3.71l-.33,0v0a7.44,7.44,0,0,1,2.6-4.09A7.11,7.11,0,0,1,376,61a7,7,0,0,1,2.67.19,6.83,6.83,0,0,1,.69.23C379.54,61.47,379.62,61.51,379.61,61.52Z" style="fill:#263238"></path><path d="M346.36,43.76a10.82,10.82,0,0,1-.91,1,22.66,22.66,0,0,0-2.24,3,22,22,0,0,0-3.32,11.75v.14l-.34,0a19.32,19.32,0,0,0-2.15-6.36A20.28,20.28,0,0,0,334.13,49a20,20,0,0,0-2.84-2.4,12.83,12.83,0,0,1-1.12-.78,1.58,1.58,0,0,1,.32.15c.2.12.51.27.88.52a17.41,17.41,0,0,1,2.93,2.34,19.41,19.41,0,0,1,5.59,10.9l-.34,0v-.15A21.61,21.61,0,0,1,343,47.69a18.84,18.84,0,0,1,2.34-3c.3-.33.57-.55.74-.72A1.63,1.63,0,0,1,346.36,43.76Z" style="fill:#263238"></path></g><g id="freepik--Car--inject-3"><rect x="125.21" y="263.34" width="324.8" height="33.99" style="fill:#e0e0e0"></rect><path d="M450,297.35H125.18v-34H450Zm-324.8-.05H450V263.36H125.23Z" style="fill:#263238"></path><g style="opacity:0.30000000000000004"><rect x="125.21" y="263.34" width="324.8" height="33.99"></rect></g><rect x="302.31" y="187.44" width="2.45" height="8.54" style="fill:#263238"></rect><rect x="313.87" y="187.44" width="2.45" height="8.54" style="fill:#263238"></rect><path d="M109.74,293.73v-19h8.13s3.56-26.93,17.79-30.74,80-9.66,80-9.66,53.24-35,65.44-37.26S449.21,195,449.21,195s5.59,3.3,15.75,20.07,14.74,30.49,14.74,34.31v24.9l4.39-.21s2.22,21.3-19.89,26.63h-1l-20.32,2.37s-6.13-32.81-34.81-34.64C384.16,266.9,371,280,366.37,303.06h-158s-3.3-36.16-39.64-35.15-38.37,35.15-38.37,35.15H119.08A9.34,9.34,0,0,1,109.74,293.73Z" style="fill:#e0e0e0"></path><path d="M109.74,293.73l0,.41a7.36,7.36,0,0,0,.15,1.23,9.15,9.15,0,0,0,2.09,4.38,9.34,9.34,0,0,0,7.11,3.25l11.2,0-.08.08a42.77,42.77,0,0,1,6.93-19.43,34.36,34.36,0,0,1,8.77-9,35.43,35.43,0,0,1,5.95-3.35c1.09-.44,2.17-.92,3.32-1.27s2.3-.69,3.49-1,2.42-.48,3.65-.72,2.5-.34,3.78-.4,2.56-.19,3.87-.15h2l2,.13c1.34,0,2.67.31,4,.47s2.69.5,4,.93a33.33,33.33,0,0,1,7.82,3.26,35.23,35.23,0,0,1,12.52,12.54,47.58,47.58,0,0,1,6.17,17.94l-.18-.17,158-.06-.23.2A66.9,66.9,0,0,1,370,290.24a39.84,39.84,0,0,1,7.3-11.5,31.82,31.82,0,0,1,11.4-7.87,39.43,39.43,0,0,1,13.83-2.75c4.73-.1,9.61.11,14.2,1.72a33.12,33.12,0,0,1,12.44,7.43A44.67,44.67,0,0,1,438,289.05a56.13,56.13,0,0,1,5.13,14l-.28-.21,20.32-2.38h1a29.69,29.69,0,0,0,8.09-3.2c.65-.35,1.24-.8,1.87-1.2s1.19-.89,1.73-1.4a21.17,21.17,0,0,0,3.06-3.28,26.43,26.43,0,0,0,4.94-17.27l.27.23-4.39.21h-.27V251.37c0-.91,0-1.87-.05-2.74a20.77,20.77,0,0,0-.52-2.68c-.44-1.78-1-3.52-1.63-5.25-1.24-3.45-2.67-6.82-4.22-10.12a171.06,171.06,0,0,0-10.52-19c-1.93-3-4-6-6.15-8.79-1.09-1.4-2.22-2.77-3.42-4.07a24.65,24.65,0,0,0-3.85-3.54l.13,0c-47.11,0-91.73.1-132.7.73-10.24.19-20.26.35-30,.88-1.22,0-2.42.17-3.62.3-.6.06-1.2.11-1.8.19s-1.15.27-1.72.47a59.6,59.6,0,0,0-6.6,2.75c-4.28,2.07-8.41,4.31-12.45,6.58-8.06,4.55-15.75,9.22-23.17,13.81s-14.53,9.12-21.34,13.57l0,0h0c-13.42,1.21-26,2.45-37.73,3.71s-22.52,2.5-32.32,4c-2.46.36-4.84.79-7.15,1.24-1.14.28-2.3.46-3.38.82a13.67,13.67,0,0,0-3.06,1.39,19.42,19.42,0,0,0-4.75,4.35,31.47,31.47,0,0,0-3.3,5.14,55.93,55.93,0,0,0-4,10.31,72.61,72.61,0,0,0-2,9.26v.07h-.07l-8.13,0,.07-.07c0,6.51,0,11.25,0,14.36,0,1.55,0,2.7,0,3.47s0,1.13,0,1.13,0-.37,0-1.13,0-1.92,0-3.47c0-3.11,0-7.85,0-14.36v-.06h.07l8.13,0-.08.07a72.85,72.85,0,0,1,2-9.28,55.57,55.57,0,0,1,4-10.36,31.85,31.85,0,0,1,3.31-5.18,19.41,19.41,0,0,1,4.81-4.42,14.17,14.17,0,0,1,3.11-1.43c1.1-.36,2.26-.54,3.41-.83,2.31-.45,4.7-.89,7.15-1.26,9.82-1.52,20.63-2.77,32.34-4.06s24.31-2.53,37.73-3.75l-.09,0q10.23-6.69,21.34-13.6c7.41-4.6,15.11-9.27,23.18-13.84,4-2.28,8.17-4.52,12.46-6.6a58.32,58.32,0,0,1,6.66-2.77,17.09,17.09,0,0,1,1.77-.49c.6-.09,1.21-.13,1.82-.2,1.21-.13,2.43-.26,3.65-.3,9.77-.54,19.79-.7,30-.9,41-.65,85.6-.77,132.71-.79h.08l0,0a25.44,25.44,0,0,1,4,3.63c1.21,1.32,2.35,2.69,3.45,4.1,2.2,2.83,4.23,5.79,6.17,8.83a169.68,169.68,0,0,1,10.56,19c1.55,3.31,3,6.7,4.24,10.17.62,1.73,1.2,3.49,1.65,5.29a25.19,25.19,0,0,1,.53,2.75c.09,1,0,1.87,0,2.8v22.9l-.27-.26,4.38-.21h.26l0,.24a28.59,28.59,0,0,1-1,9.32,24.43,24.43,0,0,1-4.06,8.32,20.79,20.79,0,0,1-3.13,3.36c-.55.53-1.18,1-1.77,1.43s-1.24.87-1.91,1.23a30.18,30.18,0,0,1-8.23,3.25h-1.05l-20.32,2.37-.24,0,0-.24a55.53,55.53,0,0,0-5.08-13.82,44.08,44.08,0,0,0-8.67-11.65,32.68,32.68,0,0,0-12.25-7.32c-4.52-1.58-9.33-1.8-14-1.7a39,39,0,0,0-13.66,2.71,31.52,31.52,0,0,0-11.23,7.75,39.46,39.46,0,0,0-7.21,11.35,67.11,67.11,0,0,0-3.87,12.68l0,.2h-.2l-158-.06h-.16l0-.17a47.18,47.18,0,0,0-6.1-17.79,34.8,34.8,0,0,0-12.39-12.43,32.39,32.39,0,0,0-7.74-3.25,40.39,40.39,0,0,0-4-.93c-1.34-.16-2.66-.42-4-.47l-2-.13h-2c-1.3,0-2.58.07-3.85.14s-2.52.27-3.76.39-2.44.41-3.62.71a35.5,35.5,0,0,0-3.47,1,35.1,35.1,0,0,0-3.3,1.25,34.12,34.12,0,0,0-14.64,12.22,41,41,0,0,0-4.9,9.93,41.7,41.7,0,0,0-2.05,9.38v.08h-.08l-11.2,0a9.46,9.46,0,0,1-7.18-3.32,9.23,9.23,0,0,1-2.07-4.43,7.82,7.82,0,0,1-.12-1.24C109.74,293.87,109.74,293.73,109.74,293.73Z" style="fill:#263238"></path><path d="M220.23,240.44a.75.75,0,0,1-.24,0l-.72,0-2.76.13c-2.4.11-5.87.28-10.15.55-8.56.54-20.38,1.5-33.36,3.18s-24.7,3.53-33.17,4.9l-10,1.65-2.73.45-.71.1-.24,0s.07,0,.23-.07l.7-.16,2.72-.53c2.35-.46,5.77-1.09,10-1.82,8.46-1.47,20.16-3.39,33.16-5.06s24.84-2.58,33.41-3c4.29-.23,7.76-.34,10.16-.39l2.77,0H220Z" style="fill:#263238"></path><path d="M225.56,231.18l.66-.42,2-1.22,7.65-4.7c6.7-4.08,16.39-10.18,28.93-17.36a82.8,82.8,0,0,1,10.14-5.17,50.68,50.68,0,0,1,12-3.18c4.3-.64,8.81-.45,13.44-.54l14.38-.13,65.78-.57h.14l.07.13c6.72,12.29,13.75,25.15,21,38.43l0,.05v22.35h-.25l-10.89.48.18-.08-5.49,6.06-22.59,24.92.07-.17v7.76h-.26l-138.7-.08h-.13l0-.13A77.58,77.58,0,0,1,221,282.71c-.46-4.76-.64-9.26-.74-13.45-.18-8.41,0-15.62-.06-21.5,0-1.47-.09-2.85-.08-4.16a22.85,22.85,0,0,1,.32-3.65,15.38,15.38,0,0,1,1.93-5.36,11.19,11.19,0,0,1,2.21-2.71,5.12,5.12,0,0,1,1-.7,6.65,6.65,0,0,0-.93.74,11.54,11.54,0,0,0-2.17,2.72,15.5,15.5,0,0,0-1.87,5.34,23.81,23.81,0,0,0-.29,3.62c0,1.3.08,2.69.1,4.16.1,5.88-.06,13.1.15,21.49.11,4.19.31,8.68.78,13.43a78.93,78.93,0,0,0,2.7,14.84l-.17-.13,138.7-.08-.26.26V290l.07-.08L385,265l5.5-6.06.07-.08h.11l10.89-.48-.25.26c0-7.57,0-15,0-22l0,.12-21-38.44.22.13-65.78.5-14.38.1c-4.64.08-9.13-.12-13.39.5a50.47,50.47,0,0,0-12,3.14,84,84,0,0,0-10.13,5.12c-12.54,7.14-22.26,13.2-29,17.24l-7.69,4.63-2,1.19C225.8,231.06,225.56,231.18,225.56,231.18Z" style="fill:#263238"></path><path d="M299.09,184l-1.73,2.36a2.33,2.33,0,0,0,1.89,3.7h20.37a2.33,2.33,0,0,0,2-3.58l-1.39-2.19a5.55,5.55,0,0,0-4.66-2.56h-12A5.49,5.49,0,0,0,299.09,184Z" style="fill:#263238"></path><path d="M333.16,186c-4.11.3-12.24,9-12.24,9l-.29.56H330c-.05-1.3,3.38-6,3.38-6H339V186A28.86,28.86,0,0,0,333.16,186Z" style="fill:#263238"></path><path d="M437.46,186c4.12.3,12.25,9,12.25,9l.29.56h-9.35c.05-1.3-3.38-6-3.38-6h-5.68V186A28.78,28.78,0,0,1,437.46,186Z" style="fill:#263238"></path><path d="M336.65,188.07h99.94a.63.63,0,0,0,0-1.25H336.65a.63.63,0,0,0,0,1.25Z" style="fill:#263238"></path><path d="M245.7,222.7s30.36-17.51,34.83-19.35c5.18-2.13,14.7-2,14.7-2l15.63-.42v39.47H229.2a13.1,13.1,0,0,1,2.88-8.36C235.21,228.4,245.7,222.7,245.7,222.7Z" style="fill:#263238"></path><rect x="202.79" y="249.86" width="11.06" height="6.13" rx="2.69" style="fill:#263238"></rect><path d="M323.89,206.86v27.69a5.12,5.12,0,0,0,5.12,5.12h55.21a5.1,5.1,0,0,0,4-1.94l1.29-1.62a5.13,5.13,0,0,0,.57-5.46l-12.95-26.06a5.11,5.11,0,0,0-4.58-2.84H329A5.12,5.12,0,0,0,323.89,206.86Z" style="fill:#263238"></path><path d="M317.87,297.33c-.14,0-.26-22.1-.26-49.34s.12-49.34.26-49.34.26,22.08.26,49.34S318,297.33,317.87,297.33Z" style="fill:#263238"></path><path d="M425.2,274.06c0-.15,12.45-.26,27.8-.26s27.81.11,27.81.26-12.45.26-27.81.26S425.2,274.2,425.2,274.06Z" style="fill:#263238"></path><path d="M465.35,274.06V257.92a8.5,8.5,0,0,1,8.5-8.51h5.85v24.86Z" style="fill:#263238"></path><path d="M465.35,274.06a.9.9,0,0,1,.28,0h3.67l10.4,0-.2.21c0-6.27,0-14.25-.06-22.92v-1.94l.26.26h-3.65a26.41,26.41,0,0,0-3.48.11,8.22,8.22,0,0,0-5.39,3.27,8.5,8.5,0,0,0-1.62,5.5c0,1.86,0,3.59,0,5.18,0,3.14-.07,5.69-.09,7.52,0,.86,0,1.54-.05,2.06s0,.74,0,.75a3,3,0,0,1,0-.68c0-.51,0-1.18,0-2,0-1.84-.06-4.39-.1-7.54,0-1.61,0-3.37,0-5.26a9,9,0,0,1,1.66-5.8,8.69,8.69,0,0,1,5.69-3.49,26.48,26.48,0,0,1,3.56-.12H480v2.2c0,8.67,0,16.65-.06,22.92v.21h-.2l-10.53-.26-2.86-.09C465.67,274.09,465.33,274.07,465.35,274.06Z" style="fill:#263238"></path><path d="M479.7,263.27a99.13,99.13,0,0,1-14.35,0,99.13,99.13,0,0,1,14.35,0Z" style="fill:#263238"></path><path d="M393.31,205.81l13.73,29a3.37,3.37,0,0,0,3.06,1.94h30.76a12,12,0,0,0,9.51-4.66h0a12,12,0,0,0,.66-13.81l-10-15.76a3.39,3.39,0,0,0-2.86-1.58H396.37A3.39,3.39,0,0,0,393.31,205.81Z" style="fill:#263238"></path><path d="M127.74,275.18s4.83-13.72,5.11-17-6.73-6.7-6.73-6.7a40.58,40.58,0,0,0-5.43,11.45c-1.78,6.4-3.14,12.24-3.14,12.24Z" style="fill:#fff"></path><path d="M231.76,286.18a9.87,9.87,0,0,1-2.91-1.24l1.79-3.39a9.94,9.94,0,0,0,2.59,1.18,10.05,10.05,0,0,0,2.75.4,4.47,4.47,0,0,0,2-.38,1.15,1.15,0,0,0,.72-1,1,1,0,0,0-.65-.9,12.81,12.81,0,0,0-2-.69,21,21,0,0,1-2.59-.83,4.64,4.64,0,0,1-1.78-1.3,3.42,3.42,0,0,1-.74-2.29,5,5,0,0,1,.94-3,5.92,5.92,0,0,1,2.68-2,10.82,10.82,0,0,1,4.08-.71,14.16,14.16,0,0,1,3.21.35,9,9,0,0,1,2.57,1l-1.65,3.37a7.62,7.62,0,0,0-2.08-.9,8.62,8.62,0,0,0-2.33-.31,4.35,4.35,0,0,0-2.12.43,1.28,1.28,0,0,0-.76,1.13,1,1,0,0,0,.66.91,11.23,11.23,0,0,0,2.06.69,19.06,19.06,0,0,1,2.58.81,4.47,4.47,0,0,1,1.76,1.26,3.25,3.25,0,0,1,.73,2.22,4.94,4.94,0,0,1-1,3,6.08,6.08,0,0,1-2.71,2,10.82,10.82,0,0,1-4.06.71A14.58,14.58,0,0,1,231.76,286.18Z" style="fill:#263238"></path><path d="M262.85,270.29l-3.21,16H255.1l1.24-6.24h-6.17l-1.24,6.24h-4.54l3.21-16h4.54l-1.19,6h6.17l1.19-6Z" style="fill:#263238"></path><path d="M269.84,273.8l-.53,2.7h7.13l-.66,3.39h-7.15l-.58,2.94h8.42l-.74,3.51H262.87l3.21-16h12.56l-.71,3.51Z" style="fill:#263238"></path><path d="M293.64,279.2a6.68,6.68,0,0,1-3.28,2.32l2.73,4.82h-4.75L286,282.07h-2.3l-.84,4.27h-4.54l3.21-16h6.85a7.48,7.48,0,0,1,4.77,1.35,4.55,4.55,0,0,1,1.7,3.76A6.26,6.26,0,0,1,293.64,279.2Zm-4.08-4.84a3.09,3.09,0,0,0-1.86-.49h-2.39l-1,4.7h2.71a3.45,3.45,0,0,0,2.34-.72,2.53,2.53,0,0,0,.82-2A1.73,1.73,0,0,0,289.56,274.36Z" style="fill:#263238"></path><path d="M298.45,270.29H303l-3.21,16h-4.54Z" style="fill:#263238"></path><path d="M310.05,273.8l-.71,3.53h7.08l-.71,3.51h-7.06l-1.1,5.5H303l3.21-16h12.57l-.72,3.51Z" style="fill:#263238"></path><path d="M324.77,273.8l-.71,3.53h7.08l-.71,3.51h-7.06l-1.1,5.5h-4.54l3.21-16H333.5l-.71,3.51Z" style="fill:#263238"></path><polygon points="350.6 272.16 356 272.3 353.5 277.09 356.09 281.84 350.69 282.08 347.87 286.69 344.97 282.13 339.56 282 342.06 277.2 339.47 272.46 344.87 272.22 347.69 267.61 350.6 272.16" style="fill:#263238"></polygon><circle cx="339.47" cy="272.55" r="1.14" style="fill:#263238"></circle><circle cx="356.03" cy="281.96" r="1.14" style="fill:#263238"></circle><circle cx="347.89" cy="287.11" r="1.14" style="fill:#263238"></circle><path d="M348.88,267.4a1.15,1.15,0,1,1-1.15-1.15A1.14,1.14,0,0,1,348.88,267.4Z" style="fill:#263238"></path><circle cx="356.12" cy="272.39" r="1.14" style="fill:#263238"></circle><circle cx="339.51" cy="282.21" r="1.14" style="fill:#263238"></circle><path d="M339.18,273.4c0,.14-.56.08-.79-.48s.15-1,.27-.89.09.39.22.7S339.23,273.26,339.18,273.4Z" style="fill:#fff"></path><path d="M346.83,268c-.11.09-.44-.23-.36-.72s.49-.68.57-.56,0,.36-.05.64S347,267.89,346.83,268Z" style="fill:#fff"></path><path d="M355.3,272.14c-.14,0-.24-.38.08-.65s.68-.14.65,0-.17.26-.31.39S355.45,272.13,355.3,272.14Z" style="fill:#fff"></path><path d="M355.28,282.18c-.13.08-.39-.29-.19-.72s.66-.45.68-.3-.11.31-.21.53S355.41,282.12,355.28,282.18Z" style="fill:#fff"></path><path d="M346.93,287.38c-.13.07-.38-.3-.17-.72s.64-.47.67-.32-.11.32-.21.54S347.06,287.33,346.93,287.38Z" style="fill:#fff"></path><path d="M338.74,282.54c-.11.09-.46-.26-.27-.77s.71-.52.72-.38-.15.33-.24.57S338.86,282.46,338.74,282.54Z" style="fill:#fff"></path><path d="M146.09,275.18c0,.15-8.21.27-18.35.27s-18.35-.12-18.35-.27,8.22-.26,18.35-.26S146.09,275,146.09,275.18Z" style="fill:#263238"></path><path d="M367.74,212.73a6.24,6.24,0,0,1-1.1.78l-3.07,2c-2.6,1.66-6.18,4-10.08,6.6s-7.37,5.1-9.88,6.89l-3,2.12a6.55,6.55,0,0,1-1.13.73,7.06,7.06,0,0,1,1-.89c.66-.55,1.65-1.32,2.87-2.25,2.46-1.88,5.91-4.39,9.81-7s7.52-4.9,10.17-6.48c1.33-.79,2.41-1.41,3.17-1.83A6.45,6.45,0,0,1,367.74,212.73Z" style="fill:#455a64"></path><path d="M367.32,220a88.66,88.66,0,0,1-7.94,5.42,89.51,89.51,0,0,1-8.21,5A87.53,87.53,0,0,1,359.1,225,88.81,88.81,0,0,1,367.32,220Z" style="fill:#455a64"></path><path d="M352.72,216.33a15.39,15.39,0,0,1-3.67,2.8,15.82,15.82,0,0,1-4.14,2.06,28.85,28.85,0,0,1,3.86-2.51A30.43,30.43,0,0,1,352.72,216.33Z" style="fill:#455a64"></path><path d="M432,207.79a4.84,4.84,0,0,1-.9.67c-.6.41-1.48,1-2.57,1.67-2.18,1.39-5.24,3.24-8.66,5.21s-6.57,3.65-8.86,4.84c-1.15.59-2.09,1.06-2.74,1.37a4.9,4.9,0,0,1-1,.44,4.76,4.76,0,0,1,.94-.62l2.66-1.51,8.78-5,8.73-5.06,2.65-1.53A4.7,4.7,0,0,1,432,207.79Z" style="fill:#455a64"></path><path d="M429.45,216.38a19.38,19.38,0,0,1-2.6,1.46c-1.63.86-3.88,2-6.33,3.43s-4.63,2.68-6.21,3.62a19.33,19.33,0,0,1-2.6,1.47,15,15,0,0,1,2.4-1.78c1.54-1,3.7-2.38,6.16-3.77s4.74-2.53,6.41-3.3A14.64,14.64,0,0,1,429.45,216.38Z" style="fill:#455a64"></path><path d="M295.09,216.66a6.49,6.49,0,0,1,1.16-.32l.55-.13-.49.29c-2.3,1.36-8.86,5-16.61,9.16-4.9,2.65-9.35,5-12.59,6.71l-3.84,2a9.87,9.87,0,0,1-1.44.66,9,9,0,0,1,1.34-.84l3.77-2.13c3.19-1.77,7.61-4.19,12.51-6.84,7.75-4.18,14.38-7.67,16.77-8.85l.06.16A5.92,5.92,0,0,1,295.09,216.66Z" style="fill:#455a64"></path><path d="M285.76,216.23c0,.07-1.3.63-3.41,1.59s-5,2.36-8.07,4.08-5.78,3.45-7.71,4.75a33.27,33.27,0,0,1-3.14,2.06,4.38,4.38,0,0,1,.75-.68c.5-.42,1.24-1,2.18-1.69a79,79,0,0,1,7.66-4.9,77.7,77.7,0,0,1,8.19-4c1.08-.43,2-.77,2.57-1A4.24,4.24,0,0,1,285.76,216.23Z" style="fill:#455a64"></path><path d="M136.08,304.27a33.25,33.25,0,1,0,33.73-32.77A33.25,33.25,0,0,0,136.08,304.27Z" style="fill:#263238"></path><path d="M136.09,304.18s0,.06,0,.09a33.25,33.25,0,0,0,66.5,1v-.09Z" style="fill:#263238"></path><path d="M146,304.41a23.34,23.34,0,1,0,23.68-23A23.34,23.34,0,0,0,146,304.41Z" style="fill:#fafafa"></path><path d="M169.67,281.4a23.36,23.36,0,0,0-23.68,23l46.68.67A23.34,23.34,0,0,0,169.67,281.4Z" style="fill:#e0e0e0"></path><path d="M155.11,304.54a14.22,14.22,0,1,0,14.43-14A14.23,14.23,0,0,0,155.11,304.54Z" style="fill:#263238"></path><circle cx="404.11" cy="305.07" r="33.25" transform="translate(-27.59 40.48) rotate(-5.55)" style="fill:#263238"></circle><path d="M370.87,304.5s0,.06,0,.09a33.25,33.25,0,1,0,66.5,1v-.09Z" style="fill:#263238"></path><path d="M380.77,304.73a23.34,23.34,0,1,0,23.68-23A23.34,23.34,0,0,0,380.77,304.73Z" style="fill:#fafafa"></path><path d="M404.45,281.72a23.36,23.36,0,0,0-23.68,23l46.68.67A23.34,23.34,0,0,0,404.45,281.72Z" style="fill:#e0e0e0"></path><path d="M389.89,304.86a14.22,14.22,0,1,0,14.43-14A14.23,14.23,0,0,0,389.89,304.86Z" style="fill:#263238"></path><path d="M226.34,237h0a5.43,5.43,0,0,1,2.78-4.74l7.13-4a13.62,13.62,0,0,1,6.66-1.74h0a13.38,13.38,0,0,1,4.23.68,7.72,7.72,0,0,1,5.2,7.1h0a7.86,7.86,0,0,1-7.85,8.15H231.78A5.44,5.44,0,0,1,226.34,237Z" style="fill:#e0e0e0"></path><path d="M226.34,237a7,7,0,0,0,.74,2.54,5.56,5.56,0,0,0,2.18,2.12,5.24,5.24,0,0,0,1.82.56c.66.08,1.41,0,2.18,0l10.88-.06a7.72,7.72,0,0,0,5.65-2.18,7.66,7.66,0,0,0-.9-11.67,8.09,8.09,0,0,0-2.92-1.23,13.4,13.4,0,0,0-3.06-.37,13.71,13.71,0,0,0-5.55,1.18c-1.6.78-3.08,1.68-4.43,2.4l-3.67,2a5.34,5.34,0,0,0-2.17,2.12,6.66,6.66,0,0,0-.75,2.53s0-.06,0-.17a3.55,3.55,0,0,1,0-.53,5.05,5.05,0,0,1,.57-1.92,5.57,5.57,0,0,1,2.21-2.29l3.63-2.08c1.36-.75,2.77-1.64,4.44-2.47a13.76,13.76,0,0,1,5.72-1.27,14.56,14.56,0,0,1,3.18.36,8.79,8.79,0,0,1,3.09,1.3,8.15,8.15,0,0,1,1,12.45,8.19,8.19,0,0,1-6,2.3l-10.88,0a20.13,20.13,0,0,1-2.22-.08,5.71,5.71,0,0,1-1.92-.63,5.63,5.63,0,0,1-2.21-2.29,5.09,5.09,0,0,1-.57-1.93,3.16,3.16,0,0,1,0-.52C226.33,237.08,226.33,237,226.34,237Z" style="fill:#263238"></path></g><g id="freepik--Character--inject-3"><path d="M178.6,419.21l-.94,24.8s24.9,9.28,25.18,13.88l-48.16-.08-.13-38.71Z" style="fill:#263238"></path><path d="M154.68,457.81l.14-3.91,46.12,1.55s2.14.93,1.9,2.44Z" style="fill:#455a64"></path><path d="M178.45,443.77c0,.23-1.19.34-2.35,1.09s-1.77,1.74-2,1.65.14-1.45,1.56-2.34S178.5,443.55,178.45,443.77Z" style="fill:#fff"></path><path d="M183.49,445.87c.06.22-1,.62-1.76,1.62s-1,2-1.27,2-.38-1.34.64-2.56S183.49,445.64,183.49,445.87Z" style="fill:#fff"></path><path d="M186.35,451.92c-.21.05-.54-1.13.07-2.42s1.71-1.79,1.81-1.6-.59.89-1.07,2S186.59,451.89,186.35,451.92Z" style="fill:#fff"></path><path d="M178,438.09c-.1.22-1.18-.11-2.5,0s-2.37.5-2.49.3.87-1,2.44-1.12S178.15,437.91,178,438.09Z" style="fill:#fff"></path><path d="M120.82,420.74l-1.33,30,5.78,24a3.07,3.07,0,0,1-2.48,3.75h0a3,3,0,0,1-2.68-.85c-4.49-4.49-20.47-21.33-20.53-22.93-.11-2.55-.85-32.11-.85-32.11Z" style="fill:#263238"></path><path d="M122.79,478.53,99.46,452.36l0,1.27a4.81,4.81,0,0,0,1,3c1.86,2.28,7.12,8.47,19.55,21a3.06,3.06,0,0,0,2.77.85Z" style="fill:#455a64"></path><path d="M116.21,465.27c.17.08.88-1.48,2.69-2.28s3.43-.4,3.47-.59-.35-.31-1.05-.43a4.91,4.91,0,0,0-4.76,2.22C116.2,464.8,116.14,465.24,116.21,465.27Z" style="fill:#fff"></path><path d="M118.27,469.33c.14.14,1.12-.82,2.68-1.23s2.89-.13,2.94-.31-1.34-.82-3.11-.33S118.11,469.25,118.27,469.33Z" style="fill:#fff"></path><path d="M112.35,460c.13.14,1.64-1.34,4-2.19s4.47-.74,4.48-.94-2.17-.62-4.7.32S112.2,459.94,112.35,460Z" style="fill:#fff"></path><path d="M112,450.87c.08.18,1.75-.47,3.91-.5s3.86.52,3.93.34-1.62-1.06-3.94-1S111.9,450.73,112,450.87Z" style="fill:#fff"></path><path d="M131.06,217.88a2.22,2.22,0,1,1,2.21-2.22A2.23,2.23,0,0,1,131.06,217.88Zm0-3.43a1.22,1.22,0,1,0,1.21,1.21A1.22,1.22,0,0,0,131.06,214.45Z" style="fill:#263238"></path><path d="M81.75,230.82l-3.21,34.65,5.51,89.59,9.57,86.78h34.82s1.25-158.43,1.45-159.67c.1-.63,13.83,68.49,13.83,68.49l7.22,91.18h31.5l1.34-93.77L171,232.4Z" style="fill:#455a64"></path><rect x="90.81" y="224.28" width="8.98" height="34.27" style="fill:#263238"></rect><path d="M93.68,255.89h2.86a6.15,6.15,0,0,1,6.15,6.15v13a0,0,0,0,1,0,0H87.54a0,0,0,0,1,0,0V262a6.15,6.15,0,0,1,6.15-6.15Z" style="fill:#263238"></path><g style="opacity:0.30000000000000004"><path d="M84.71,240.33l30.47-1.8s4.75,10.34,12.57,10.11,12.53-9,12.53-9l24.84,1.77,1.91-9.87-85.39,2.64Z"></path></g><rect x="82.94" y="227.57" width="79.4" height="7.86" style="fill:#263238"></rect><path d="M164.81,215.58c-5.23-.26-5.89,6.86-5.68,9,0,.26,0,.41,0,.44l.43,17.75h11V226.81C170.2,219.85,170.67,215.88,164.81,215.58Z" style="fill:#263238"></path><path d="M167,228.5h8a0,0,0,0,1,0,0v66.06a3.23,3.23,0,0,1-3.23,3.23h-1.5a3.23,3.23,0,0,1-3.23-3.23V228.5a0,0,0,0,1,0,0Z" style="fill:#263238"></path><rect x="164.87" y="225.68" width="12.75" height="4.86" rx="1.97" style="fill:#263238"></rect><path d="M173.19,205.17h-2.1a3,3,0,0,0-3,3.18l1.1,16.53a3,3,0,0,0,3,2.79h0a3,3,0,0,0,3-2.81l1-16.52A3,3,0,0,0,173.19,205.17Z" style="fill:#263238"></path><path d="M131.41,232.4a54.81,54.81,0,0,0-3.75-5.16,55.55,55.55,0,0,0-4.71-4.31,5.77,5.77,0,0,1,1.66.92,19.51,19.51,0,0,1,3.43,3,20,20,0,0,1,2.64,3.75A5.46,5.46,0,0,1,131.41,232.4Z" style="fill:#263238"></path><path d="M119.08,226.89a3,3,0,0,1,1.53.39,9.22,9.22,0,0,1,3,2.33,17,17,0,0,1,2.14,3.14,4.54,4.54,0,0,1,.64,1.44c-.06,0-.41-.45-1-1.25a28.93,28.93,0,0,0-2.22-3,11.29,11.29,0,0,0-2.81-2.34A12.66,12.66,0,0,1,119.08,226.89Z" style="fill:#263238"></path><rect x="119.67" y="220.15" width="17.36" height="24.49" rx="7.04" style="fill:#263238"></rect><path d="M70.42,233.32c.1.31,2,26,3.18,28.38S84.71,266,84.71,266v-32.7Z" style="fill:#263238"></path><path d="M88.33,226.17,88.59,239a6.56,6.56,0,0,0,6.57,6.43h0a6.55,6.55,0,0,0,6.56-6.62l-.12-12.51Z" style="fill:#263238"></path><path d="M88.33,226.17s.3,0,.91,0l2.66,0h9.92v.22c0,2.34.07,4.91.11,7.64,0,1.37,0,2.79,0,4.23a7.23,7.23,0,0,1-1.07,4.39,6.8,6.8,0,0,1-10.4,1.26,6.68,6.68,0,0,1-2.11-4.61c0-1.6,0-3.08-.06-4.44,0-2.63,0-4.78,0-6.35v-1.7a3.75,3.75,0,0,1,0-.57,5.34,5.34,0,0,1,0,.64c0,.46.05,1,.08,1.75.06,1.56.13,3.7.23,6.32l.13,4.32a6.33,6.33,0,0,0,11.64,3.09,6.7,6.7,0,0,0,1-4.09q0-2.17,0-4.23c0-2.74,0-5.31,0-7.65l.21.22L92,226.32l-2.71-.09A7,7,0,0,1,88.33,226.17Z" style="fill:#455a64"></path><path d="M101.54,233.72a42.7,42.7,0,0,1-6.6.26,42.78,42.78,0,0,1-6.61-.26,42.78,42.78,0,0,1,6.61-.26A42.7,42.7,0,0,1,101.54,233.72Z" style="fill:#455a64"></path><path d="M96.26,231.55a1,1,0,1,1-1-1A1,1,0,0,1,96.26,231.55Z" style="fill:#455a64"></path><path d="M144.63,226.17l.26,12.85a6.56,6.56,0,0,0,6.56,6.43h0a6.57,6.57,0,0,0,6.57-6.62l-.12-12.51Z" style="fill:#263238"></path><path d="M144.63,226.17s.29,0,.9,0l2.66,0h9.92v.22c0,2.34.06,4.91.1,7.64,0,1.37,0,2.79.05,4.23a7.23,7.23,0,0,1-1.08,4.39,6.8,6.8,0,0,1-10.4,1.26,6.72,6.72,0,0,1-2.11-4.61c0-1.6,0-3.08-.06-4.44,0-2.63,0-4.78,0-6.35,0-.7,0-1.26,0-1.7a1.94,1.94,0,0,1,0-.57s0,.23.05.64,0,1,.07,1.75c.06,1.56.14,3.7.23,6.32l.14,4.32a6.25,6.25,0,0,0,2,4.29,6.31,6.31,0,0,0,9.63-1.2,6.7,6.7,0,0,0,1-4.09q0-2.17,0-4.23c0-2.74,0-5.31,0-7.65l.22.22-9.57-.22-2.71-.09A6.84,6.84,0,0,1,144.63,226.17Z" style="fill:#455a64"></path><path d="M157.83,233.72a42.59,42.59,0,0,1-6.6.26,42.59,42.59,0,0,1-6.6-.26,42.59,42.59,0,0,1,6.6-.26A42.59,42.59,0,0,1,157.83,233.72Z" style="fill:#455a64"></path><path d="M152.56,231.55a1,1,0,1,1-1-1A1,1,0,0,1,152.56,231.55Z" style="fill:#455a64"></path><path d="M82.94,235.43s.68-6.9,0-7.86-18.79-5.95-22.64-6.38c-3.36-.38-4.89,4.41-4,8.82s14.92,3.41,14.92,3.41Z" style="fill:#263238"></path><polygon points="75.59 224.97 75.69 237.44 80.33 237.44 79.53 226.17 75.59 224.97" style="fill:#455a64"></polygon><path d="M78.54,235.2a.83.83,0,1,1-.83-.82A.83.83,0,0,1,78.54,235.2Z" style="fill:#263238"></path><path d="M159.6,242.73a3.4,3.4,0,0,1,.82-.08l2.27-.06,7.94-.1-.24.24c0-2.13,0-4.47-.1-6.93-.11-5-.23-9.46-.24-12.71,0-1.63,0-2.94,0-3.85a7.07,7.07,0,0,1,.1-1.42,8.17,8.17,0,0,1,.1,1.42c0,1,.08,2.3.13,3.84.1,3.25.28,7.74.39,12.71.05,2.46.08,4.81.06,6.94V243h-.24l-7.94-.09-2.27-.07A2.86,2.86,0,0,1,159.6,242.73Z" style="fill:#455a64"></path><path d="M112.29,431.19s0-.16,0-.46,0-.78,0-1.36c0-1.21,0-3,0-5.2,0-4.53-.08-11.07-.19-19.16-.22-16.17-.76-38.52-1.74-63.18s-2.21-47-3.18-63.13c-.5-8.05-.9-14.58-1.18-19.12-.13-2.24-.24-4-.31-5.2,0-.57,0-1-.07-1.35s0-.46,0-.46,0,.15.06.46.07.77.12,1.35c.1,1.21.24,2.95.41,5.19.35,4.51.82,11,1.34,19.11,1.07,16.14,2.35,38.46,3.34,63.13s1.46,47,1.58,63.2c.07,8.08.08,14.63,0,19.16,0,2.24,0,4,0,5.2,0,.58,0,1,0,1.36S112.29,431.19,112.29,431.19Z" style="fill:#263238"></path><path d="M168.76,429.94a4,4,0,0,1,0-.46c0-.33,0-.78.07-1.37.07-1.22.18-3,.32-5.24.07-1.13.15-2.4.24-3.78s.1-2.89.15-4.51c.09-3.23.27-6.92.21-11,0-2,0-4.17,0-6.4s-.14-4.53-.21-6.92c-.1-4.8-.51-9.9-.84-15.27-.87-10.74-2.23-22.51-4.18-34.79-4-24.56-9.4-46.45-13.57-62.2-1-3.95-2-7.49-2.87-10.62s-1.62-5.8-2.24-8l-1.42-5-.36-1.32a4.06,4.06,0,0,1-.1-.45,4.62,4.62,0,0,1,.15.44c.1.31.24.74.41,1.3l1.51,5c.66,2.18,1.45,4.85,2.33,8s1.91,6.66,3,10.6A615.05,615.05,0,0,1,165,340.13c1.95,12.29,3.3,24.08,4.15,34.83.32,5.38.71,10.49.79,15.29.06,2.4.16,4.71.18,6.94s0,4.36,0,6.4c0,4.08-.17,7.76-.28,11-.07,1.62-.11,3.13-.19,4.51s-.2,2.65-.29,3.79c-.18,2.25-.32,4-.42,5.23-.05.58-.09,1-.12,1.36S168.76,429.94,168.76,429.94Z" style="fill:#263238"></path><path d="M127.52,431.19c0,.14-7.85.26-17.53.26s-17.55-.12-17.55-.26,7.86-.26,17.55-.26S127.52,431.05,127.52,431.19Z" style="fill:#263238"></path><path d="M182.6,430.58c0,.14-7.26.19-16.19.11s-16.19-.27-16.19-.41,7.25-.2,16.19-.11S182.6,430.43,182.6,430.58Z" style="fill:#263238"></path><path d="M132.64,243.34a5.38,5.38,0,0,1,.17,1.19c.07.88.16,2,.26,3.26.2,2.75.43,6.56.66,10.76.11,2.1.21,4.1.31,5.93a2.66,2.66,0,0,1-.2,1.43,1.58,1.58,0,0,1-1.18.75l-2.25.33-3.24.43a6,6,0,0,1-1.2.09,5,5,0,0,1,1.17-.29l3.21-.59,2.22-.39a1.18,1.18,0,0,0,.87-.54,2.37,2.37,0,0,0,.12-1.19c-.11-1.84-.22-3.83-.35-5.93-.23-4.2-.41-8-.51-10.77,0-1.29-.07-2.39-.09-3.27A5.36,5.36,0,0,1,132.64,243.34Z" style="fill:#263238"></path><path d="M161.54,202.92l-1.94-5.52-.1-9.19,1.16-4L161.87,140l-28.46-10.5-3.6-6.35-25.31-.53L101.08,129s-13.38,5.45-20.75,8.83a62.23,62.23,0,0,0-8,4.39,20.87,20.87,0,0,0-7.52,9.9C59.88,165.94,49.23,197,49.23,197c3.93-1.1,31.32,3.79,31.32,3.79L81.78,190l.31-6.34h0l2.29,14.63s-2.6,7.71-2.6,11.17a111.43,111.43,0,0,0,1.16,11.18v6.92s39.49.4,49.51,0,26.39.17,26.39.17S166.74,212.94,161.54,202.92Z" style="fill:#e0e0e0"></path><path d="M161.87,140l.89.48a33.47,33.47,0,0,1,11.73,10.74l18.67,27.92-29.53,14.73-4-13.13Z" style="fill:#e0e0e0"></path><path d="M121.24,147.41a3.19,3.19,0,0,1-.63-.49l-1.67-1.48-5.89-5.38.24,0-10,4.08-4.15,1.67-.42.16.07-.43c.72-4.86,1.35-9.12,1.82-12.28.24-1.46.44-2.67.59-3.6a8.15,8.15,0,0,1,.27-1.29,7.22,7.22,0,0,1-.09,1.32c-.12.93-.26,2.14-.44,3.62-.42,3.16-1,7.43-1.65,12.3l-.34-.28,4.14-1.67,10.07-4,.14-.05.1.1,5.76,5.52,1.59,1.57A3.3,3.3,0,0,1,121.24,147.41Z" style="fill:#263238"></path><path d="M125.36,227.57a1.29,1.29,0,0,1,0-.29q0-.33,0-.84c0-.78.07-1.86.12-3.23.11-2.81.27-6.87.34-11.89,0-2.51,0-5.26,0-8.21a78.45,78.45,0,0,0-.68-9.37c-.95-6.59-1.55-13.87-2.22-21.5-.76-8.94-1.39-17.38-1.9-24.81v-.08l0-.06,5.44-8.88.07-.12.14,0,9,1.8-.18.19c-.69-3.38-1.24-6.07-1.62-8-.17-.89-.31-1.59-.41-2.11l-.09-.54c0-.12,0-.19,0-.19s0,.06.06.18.08.32.13.54c.12.51.29,1.2.49,2.09l1.77,7.91,0,.23-.23,0-9.07-1.71.21-.1-5.38,8.92,0-.14c.55,7.43,1.2,15.87,2,24.8.67,7.63,1.25,14.92,2.17,21.48a75.46,75.46,0,0,1,.64,9.43c.05,3,0,5.71,0,8.23-.11,5-.32,9.08-.49,11.89-.1,1.37-.17,2.45-.23,3.23,0,.34,0,.62-.07.83A1,1,0,0,1,125.36,227.57Z" style="fill:#263238"></path><path d="M86.6,169.75s.06.26.14.74.2,1.21.34,2.08c.27,1.85.66,4.45,1.15,7.66l0-.07a1.5,1.5,0,0,0,2.19.42c.4-.27.81-.59,1.24-.87a13.57,13.57,0,0,1,1.4-.78,8.84,8.84,0,0,1,6.87-.63,6.21,6.21,0,0,1,.88.39l.21.12,0,0h0c.18,0-.25,0-.2,0h0l.05,0,.1,0a3,3,0,0,0,.41-.17,3.26,3.26,0,0,0,.75-.47c.23-.18.43-.42.68-.65a10.71,10.71,0,0,1,3.31-2.27,11.83,11.83,0,0,1,4.06-1,13.81,13.81,0,0,1,2.13,0c.35,0,.75.1,1,.11a1.8,1.8,0,0,0,1.65-1.06,2.27,2.27,0,0,0,.15-1.15c0-.86-.05-1.71-.08-2.55,0-1.67-.1-3.31-.14-4.9l.17.24a21.53,21.53,0,0,0-6-.44,55.67,55.67,0,0,0-5.57.54A78.71,78.71,0,0,0,94.47,167c-2.51.71-4.48,1.4-5.82,1.92l-1.52.6a3.49,3.49,0,0,1-.53.21,2,2,0,0,1,.49-.29c.34-.16.84-.4,1.5-.68a53.81,53.81,0,0,1,5.79-2.06,71.18,71.18,0,0,1,9.11-2.07,55.52,55.52,0,0,1,5.61-.59,22,22,0,0,1,6.19.44l.16,0v.19c.05,1.58.1,3.22.16,4.9,0,.84,0,1.69.08,2.55a2.81,2.81,0,0,1-.19,1.38,2.42,2.42,0,0,1-1,1.07,2.46,2.46,0,0,1-1.16.29c-.42,0-.71-.09-1.07-.11a12.92,12.92,0,0,0-2.06-.05,11.52,11.52,0,0,0-3.89.9,10.48,10.48,0,0,0-3.17,2.16c-.22.21-.44.46-.71.68a4.17,4.17,0,0,1-.85.53l-.46.19-.12,0-.06,0h0l-.21,0h0a1.18,1.18,0,0,0-.19-.11,5.8,5.8,0,0,0-.8-.37,8.45,8.45,0,0,0-6.52.57,14.92,14.92,0,0,0-1.37.74l-1.23.85a2,2,0,0,1-1.53.32,1.88,1.88,0,0,1-1.19-.87l0,0v0c-.42-3.26-.75-5.89-1-7.77l-.24-2.06A3.39,3.39,0,0,1,86.6,169.75Z" style="fill:#263238"></path><path d="M114.8,174.1a3.56,3.56,0,0,1,.12.51q.09.57.24,1.47c.2,1.29.48,3.17.79,5.52s.67,5.18,1,8.39c.07.8.13,1.63.16,2.48a9.6,9.6,0,0,1-.18,2.65,8,8,0,0,1-3.08,4.67l0,0h-.05l-7.81,1.42-9.17,1.65h-.1a13.41,13.41,0,0,1-2.61-.81,5.55,5.55,0,0,1-1.19-.66l-.27-.21a1.12,1.12,0,0,1-.23-.32,4.77,4.77,0,0,1-.27-.63,42.85,42.85,0,0,1-1.15-4.71c-.6-3-1-5.66-1.41-7.87s-.62-4-.78-5.2c-.08-.57-.14-1-.18-1.39a1.52,1.52,0,0,1,0-.49,2.7,2.7,0,0,1,.11.48c.07.36.16.81.26,1.38.23,1.26.55,3,.94,5.17s.88,4.86,1.51,7.83a46.65,46.65,0,0,0,1.18,4.65,4.53,4.53,0,0,0,.23.55.72.72,0,0,0,.14.19l.23.19a6.44,6.44,0,0,0,1.1.6,13.11,13.11,0,0,0,2.52.75h-.09l9.17-1.67,7.81-1.4-.1,0a7.6,7.6,0,0,0,2.89-4.36,9,9,0,0,0,.19-2.53c0-.83-.08-1.66-.14-2.45-.24-3.2-.57-6-.83-8.39s-.49-4.18-.64-5.53l-.16-1.49A1.71,1.71,0,0,1,114.8,174.1Z" style="fill:#263238"></path><path d="M102.47,175.23a1.72,1.72,0,1,1-1.72-1.72A1.72,1.72,0,0,1,102.47,175.23Z" style="fill:#455a64"></path><path d="M160.2,166a4.58,4.58,0,0,1,0,.7c0,.51,0,1.19-.05,2-.07,1.86-.16,4.47-.27,7.69v0l0,0a1.79,1.79,0,0,1-1.21,1,2,2,0,0,1-1.62-.33,14.28,14.28,0,0,0-2.95-1.38,9.72,9.72,0,0,0-3.47-.44,6.75,6.75,0,0,0-3.44,1.22l-.09.08-.11,0-1.13-.22h-.08l-.06-.06a10.05,10.05,0,0,0-5.83-3,13,13,0,0,0-3.53,0,15.55,15.55,0,0,0-1.78.35l-.89.25a1.8,1.8,0,0,1-1.06.07,1.76,1.76,0,0,1-1.31-1.81v-.68l.06-2.7c0-1.77.08-3.5.11-5.17v-.17l.14-.05a21.15,21.15,0,0,1,6-1,50.67,50.67,0,0,1,5.55.08,70.44,70.44,0,0,1,9.09,1.2,54.61,54.61,0,0,1,5.85,1.5c.67.22,1.18.41,1.52.54a2.3,2.3,0,0,1,.51.23,3.61,3.61,0,0,1-.54-.15l-1.54-.45a60,60,0,0,0-5.86-1.35A72.18,72.18,0,0,0,143.2,163a50.1,50.1,0,0,0-5.5,0,21.62,21.62,0,0,0-5.85,1l.15-.22c0,1.67-.07,3.4-.11,5.17,0,.89,0,1.79,0,2.7v.69a1.16,1.16,0,0,0,.09.56,1.22,1.22,0,0,0,.83.72,1.25,1.25,0,0,0,.78-.06c.3-.09.6-.18.91-.25a14.58,14.58,0,0,1,1.84-.36,13,13,0,0,1,3.68,0,10.47,10.47,0,0,1,6.11,3.17l-.13-.07,1.13.22-.2.05a8.12,8.12,0,0,1,7.35-.82,14.64,14.64,0,0,1,3,1.45,1.51,1.51,0,0,0,2.31-.49l0,.07c.19-3.18.34-5.75.44-7.59.06-.86.11-1.55.14-2.07A7.4,7.4,0,0,1,160.2,166Z" style="fill:#263238"></path><path d="M132.75,174.64a3,3,0,0,1,0,.47c0,.36,0,.81,0,1.36,0,1.25,0,3-.06,5.08s0,4.76,0,7.68a14,14,0,0,0,.64,4.5,7.42,7.42,0,0,0,3.09,3.66l-.1,0,8,.69,8.89.79h-.09a12.2,12.2,0,0,0,2.27-.9,5.89,5.89,0,0,0,1-.62,2.37,2.37,0,0,0,.4-.37,1.6,1.6,0,0,0,.19-.45,33.57,33.57,0,0,0,.68-4.38c.29-2.81.46-5.31.61-7.38s.25-3.67.33-4.86l.1-1.3a1.46,1.46,0,0,1,.07-.45,2.28,2.28,0,0,1,0,.45c0,.35,0,.78,0,1.31,0,1.13-.08,2.79-.18,4.87s-.25,4.58-.51,7.4a30.13,30.13,0,0,1-.65,4.47,1.88,1.88,0,0,1-.28.63,3.78,3.78,0,0,1-.46.44,7.35,7.35,0,0,1-1.06.68,13.5,13.5,0,0,1-2.36.94l0,0h-.05l-8.9-.77-8-.71h-.06l0,0a8,8,0,0,1-3.3-3.94,14.28,14.28,0,0,1-.62-4.65c-.06-2.94,0-5.55.06-7.71s.14-3.89.21-5.07c0-.55.06-1,.09-1.36A1.47,1.47,0,0,1,132.75,174.64Z" style="fill:#263238"></path><path d="M145.15,172.78a1.69,1.69,0,1,0,1.53-1.84A1.69,1.69,0,0,0,145.15,172.78Z" style="fill:#455a64"></path><circle cx="129.46" cy="197.4" r="1.72" style="fill:#455a64"></circle><path d="M127.2,159.94a1.72,1.72,0,1,1-1.72-1.71A1.72,1.72,0,0,1,127.2,159.94Z" style="fill:#455a64"></path><circle cx="127.75" cy="179.15" r="1.72" style="fill:#455a64"></circle><path d="M190.66,180.4s7.16,11.72,6.33,15.9c-1.53,7.65-9.7,14.74-22.49,19.5s-18.3,4.94-18.3,4.94L144.51,210l27-17.51-1.87-1.65C174.53,188.58,190.66,180.4,190.66,180.4Z" style="fill:#ffbf9d"></path><path d="M151.1,206.25,144.51,210s-10.17.47-10.79.72-11.59,9.37-11.59,9.37,1.5,2.43,5.12,1.14c0,0-1.64,1.9-3.47,4a4.81,4.81,0,0,0-1.4,3.12,3.53,3.53,0,0,0,.18,1.3,1.71,1.71,0,0,0,2.1,1.08h0a3,3,0,0,0,1,2.76c1.3,1.09,3.18-.12,3.18-.12s-.21,1.66.9,1.94a3.86,3.86,0,0,0,3.55-1.07,3.87,3.87,0,0,0,3.48.69c2-.63,13.35-7.63,14.87-9.69a25.15,25.15,0,0,1,4.59-4.5Z" style="fill:#ffbf9d"></path><path d="M134.91,214.68c.06,0,0,.69-.82,1.33s-2,1.13-3.12,2a29.2,29.2,0,0,0-2.76,2.39c-.68.65-1.12,1-1.18,1s.29-.52.92-1.24a16,16,0,0,1,2.72-2.56c1.19-.9,2.47-1.31,3.2-1.85S134.83,214.65,134.91,214.68Z" style="fill:#ff9a6c"></path><path d="M141.51,227.6a19.6,19.6,0,0,1-3.77,3.62,19.12,19.12,0,0,1-4.32,2.94,41.63,41.63,0,0,1,4-3.34A38.76,38.76,0,0,1,141.51,227.6Z" style="fill:#ff9a6c"></path><path d="M138.81,224.63a63.3,63.3,0,0,1-5,4.48,61.29,61.29,0,0,1-5.08,4.33,33.14,33.14,0,0,1,4.74-4.72A32.41,32.41,0,0,1,138.81,224.63Z" style="fill:#ff9a6c"></path><path d="M136.54,220.39a11.24,11.24,0,0,1-1.69,1.61l-4.22,3.68-4.2,3.71a10.8,10.8,0,0,1-1.81,1.47,9.94,9.94,0,0,1,1.56-1.73c1-1,2.46-2.39,4.11-3.84s3.19-2.7,4.33-3.58A9.12,9.12,0,0,1,136.54,220.39Z" style="fill:#ff9a6c"></path><path d="M191.11,190c0,.08-1.14-.08-3-.18a40,40,0,0,0-7.09.25,39,39,0,0,0-6.92,1.54,28.67,28.67,0,0,1-2.82.9,2.63,2.63,0,0,1,.69-.4,21.37,21.37,0,0,1,2-.85,31.61,31.61,0,0,1,14.16-1.8,18.92,18.92,0,0,1,2.15.32A2.14,2.14,0,0,1,191.11,190Z" style="fill:#ff9a6c"></path><path d="M53.66,197s-1.5,8.79,0,12,11.82,11.61,25.24,14.09,18.89,1.7,18.89,1.7l9.65-12.57L77.84,199.72Z" style="fill:#ffbf9d"></path><path d="M100.34,209.71l7.14,2.58s10.11-1.29,10.75-1.15,13,7.22,13,7.22-1.07,2.65-4.85,2c0,0,1.94,1.58,4.1,3.31a4.82,4.82,0,0,1,1.92,2.83,3.4,3.4,0,0,1,0,1.31,1.72,1.72,0,0,1-1.87,1.43h0a3,3,0,0,1-.49,2.88c-1.09,1.3-3.15.43-3.15.43s.49,1.6-.55,2.07a3.87,3.87,0,0,1-3.68-.44,3.88,3.88,0,0,1-3.31,1.28c-2-.28-14.46-5.2-16.31-7a25.57,25.57,0,0,0-5.3-3.64Z" style="fill:#ffbf9d"></path><path d="M117.74,215.21a5.72,5.72,0,0,0,1.21.84c.81.41,2.15.59,3.47,1.27a16.49,16.49,0,0,1,3.12,2.05c.74.6,1.16,1,1.12,1.07a4.8,4.8,0,0,1-1.33-.77,26.69,26.69,0,0,0-3.14-1.88c-1.25-.65-2.55-.88-3.41-1.41S117.68,215.22,117.74,215.21Z" style="fill:#ff9a6c"></path><path d="M113.48,229.07a41.09,41.09,0,0,1,4.59,2.46,41.16,41.16,0,0,1,4.51,2.61,19.55,19.55,0,0,1-4.77-2.15A19.33,19.33,0,0,1,113.48,229.07Z" style="fill:#ff9a6c"></path><path d="M115.62,225.68a33.48,33.48,0,0,1,5.93,3.11,32.59,32.59,0,0,1,5.49,3.84,64.3,64.3,0,0,1-5.76-3.39A62.14,62.14,0,0,1,115.62,225.68Z" style="fill:#ff9a6c"></path><path d="M117.13,221.11a10.34,10.34,0,0,1,2.12,1c1.27.67,3,1.64,4.88,2.78s3.53,2.24,4.71,3.07a9.51,9.51,0,0,1,1.83,1.44,11.4,11.4,0,0,1-2-1.13l-4.78-2.93-4.79-2.91A9.86,9.86,0,0,1,117.13,221.11Z" style="fill:#ff9a6c"></path><path d="M97.83,224.86a3.09,3.09,0,0,1,.48.21c.31.15.76.39,1.34.73a23.85,23.85,0,0,1,2,1.36c.39.28.79.6,1.21,1a7.3,7.3,0,0,0,1.39,1,75.52,75.52,0,0,0,8,3.64c1.57.62,3.25,1.26,5,1.87.44.14.9.29,1.36.41a3.83,3.83,0,0,0,1.37.2,3.67,3.67,0,0,0,2.48-1.22l.14-.16.17.11a3.89,3.89,0,0,0,2.72.63,3.4,3.4,0,0,0,.69-.2.82.82,0,0,0,.43-.41,2,2,0,0,0,0-1.38l-.12-.48.46.18a2.78,2.78,0,0,0,2.59-.11,2.56,2.56,0,0,0,.8-2.51,1.89,1.89,0,0,0-.09-.34v0h0c.11-.15-.27.35.26-.35h.3a1.62,1.62,0,0,0,.63-.21,1.45,1.45,0,0,0,.68-1.1,3.78,3.78,0,0,0-.86-2.79,18.69,18.69,0,0,0-2.52-2.22l-2.6-2.11-.77-.62,1,.17a5.3,5.3,0,0,0,2.69-.17,3.41,3.41,0,0,0,1.88-1.67l.11.31c-4.6-2.62-8.86-5.1-12.68-7.11a1,1,0,0,0-.68-.12c-.26,0-.53,0-.79.05l-1.53.14-2.91.31-5.06.59h0l0,0L101.78,210l-1.49-.67a2.79,2.79,0,0,1-.5-.26,3.9,3.9,0,0,1,.53.18l1.52.6,5.7,2.35h-.08l5.06-.66,2.9-.34L117,211c.26,0,.52-.05.8-.06a2.15,2.15,0,0,1,.44,0,1.75,1.75,0,0,1,.44.15c3.89,2,8.13,4.46,12.75,7.06l.2.12-.09.19a3.92,3.92,0,0,1-2.17,2,5.79,5.79,0,0,1-3,.2l.2-.45,2.61,2.1,1.32,1.07a7.36,7.36,0,0,1,1.28,1.22,4.27,4.27,0,0,1,1,3.18,2,2,0,0,1-.92,1.48,2.15,2.15,0,0,1-.85.29h-.4c.53-.7.15-.19.27-.35v0a3.59,3.59,0,0,1,.11.41,3.07,3.07,0,0,1-1,3,2.54,2.54,0,0,1-1.56.47,4.39,4.39,0,0,1-1.52-.31l.33-.3a2.55,2.55,0,0,1,0,1.74,1.31,1.31,0,0,1-.69.64,3.31,3.31,0,0,1-.8.23,4.34,4.34,0,0,1-3.06-.71l.32,0a4.13,4.13,0,0,1-2.83,1.38,4.19,4.19,0,0,1-1.51-.22c-.48-.13-.93-.29-1.38-.44-1.8-.62-3.48-1.27-5-1.91a71.1,71.1,0,0,1-8-3.76,7.15,7.15,0,0,1-1.41-1.07c-.4-.37-.8-.69-1.18-1-.75-.58-1.43-1-2-1.4l-1.3-.79A2.93,2.93,0,0,1,97.83,224.86Z" style="fill:#ff9a6c"></path><path d="M57.62,203.33a3.34,3.34,0,0,1,.79-.46,24.25,24.25,0,0,1,2.3-1,34.31,34.31,0,0,1,8-1.92A33.72,33.72,0,0,1,77,200a22.33,22.33,0,0,1,2.47.44,3.35,3.35,0,0,1,.88.26c0,.09-1.3-.15-3.38-.34a41.82,41.82,0,0,0-8.16.1,40.75,40.75,0,0,0-8,1.76C58.85,202.89,57.65,203.41,57.62,203.33Z" style="fill:#ff9a6c"></path><path d="M75.83,157.72c.14,0,1.73,6.46,3.56,14.51s3.2,14.6,3.06,14.63-1.74-6.47-3.57-14.51S75.69,157.75,75.83,157.72Z" style="fill:#263238"></path><path d="M161.87,152.22c.15,0,0,7.64-.37,17s-.75,17-.9,17,0-7.63.38-17S161.73,152.21,161.87,152.22Z" style="fill:#263238"></path><path d="M68,145.81l5.3,5.65c7.35-7.3,16.65-12.4,24.63-13.55l3.16-8.83S81.25,133.55,68,145.81Z" style="fill:#e0e0e0"></path><path d="M68,145.81a4.48,4.48,0,0,1,.52-.49l1.6-1.46c.71-.64,1.63-1.3,2.68-2.13.52-.42,1.13-.8,1.74-1.24s1.28-.9,2-1.32A86.19,86.19,0,0,1,101,128.82l.46-.11-.16.45L99.94,133l-1.77,5,0,.14-.16,0A40.63,40.63,0,0,0,83,144a57.39,57.39,0,0,0-9.62,7.54l-.12.11-.1-.11-3.88-4.25-1-1.12a2.66,2.66,0,0,1-.32-.38,5,5,0,0,1,.4.38l1.07,1.09,3.94,4.07h-.22a55.08,55.08,0,0,1,9.61-7.71,40.51,40.51,0,0,1,15.1-6l-.21.17,1.77-4.95,1.38-3.88.3.34a89.34,89.34,0,0,0-24.41,10.13c-.73.42-1.38.88-2,1.29s-1.24.79-1.76,1.2c-1,.8-2,1.46-2.71,2l-1.64,1.35A6,6,0,0,1,68,145.81Z" style="fill:#263238"></path><path d="M167.3,143.48,162.64,149c-7.35-7.3-17.3-9.9-25.28-11.05l-3.15-8.83S154,131.21,167.3,143.48Z" style="fill:#e0e0e0"></path><path d="M167.3,143.48a6.75,6.75,0,0,1-.61-.46l-1.61-1.31c-.68-.57-1.63-1.18-2.67-2-.52-.4-1.13-.73-1.75-1.13s-1.27-.83-2-1.2a70.27,70.27,0,0,0-24.48-8.1l.27-.34c.43,1.2.89,2.48,1.35,3.78l1.81,5-.21-.16A54.58,54.58,0,0,1,152.83,142a37,37,0,0,1,5.76,3.33,34.81,34.81,0,0,1,4.15,3.52h-.21c1.46-1.66,2.63-3,3.46-4l.95-1.06a3,3,0,0,1,.36-.37,2.34,2.34,0,0,1-.28.37l-.87,1.08-3.4,4.12-.1.12-.12-.11a35.75,35.75,0,0,0-4.16-3.42,38.22,38.22,0,0,0-5.72-3.24,55.61,55.61,0,0,0-15.32-4.23l-.16,0,0-.14q-.88-2.48-1.81-5.06L134,129.16l-.15-.4.42.06a68.13,68.13,0,0,1,24.59,8.31c.73.38,1.37.85,2,1.24s1.22.75,1.73,1.16c1,.8,2,1.42,2.66,2.05l1.57,1.42Z" style="fill:#263238"></path><path d="M65.13,160.36l-3.39.5L55.6,178.54s1.93,3,5.82.54C66.28,176,69.66,169,69.66,169l.66-6.32Z" style="fill:#263238"></path><rect x="85.63" y="150.73" width="25.07" height="8.75" transform="translate(-25.34 19.31) rotate(-9.96)" style="fill:#fff"></rect><path d="M111.26,157.25a6.12,6.12,0,0,1-.14-.61c-.09-.44-.2-1-.34-1.71-.3-1.53-.7-3.65-1.2-6.27l.2.14c-6,1.11-14.83,2.69-24.67,4.42-.19.27.25-.37.21-.3h0v.13l0,.14,0,.28.09.56.2,1.11c.13.74.26,1.47.38,2.19.25,1.44.5,2.85.73,4.2l-.29-.2,17.62-3,5.19-.84,1.41-.21a3.07,3.07,0,0,1,.51-.06,1.53,1.53,0,0,1-.44.11l-1.34.27-5.11,1-17.75,3.23-.25,0,0-.25q-.36-2-.75-4.2c-.12-.72-.25-1.45-.38-2.19l-.2-1.11-.1-.56-.05-.28,0-.14V153h0c0,.06.4-.57.21-.3,9.84-1.73,18.69-3.25,24.7-4.25l.17,0,0,.17,1,6.4c.1.7.19,1.25.25,1.69A2,2,0,0,1,111.26,157.25Z" style="fill:#263238"></path><path d="M89.39,159.48a1.57,1.57,0,0,1-.51-1l-.06-.32.83-.15.07.39c.07.36.25.52.55.46a.42.42,0,0,0,.32-.19.63.63,0,0,0,0-.45,1.19,1.19,0,0,0-.27-.59,2.83,2.83,0,0,0-.7-.54,3.59,3.59,0,0,1-.92-.74,1.79,1.79,0,0,1-.37-.84,1.51,1.51,0,0,1,.16-1.08,1.25,1.25,0,0,1,.91-.54,1.22,1.22,0,0,1,1,.2,1.52,1.52,0,0,1,.51,1l0,.24-.83.14-.05-.28a.66.66,0,0,0-.19-.41.4.4,0,0,0-.35-.07c-.29.05-.41.26-.34.61a1,1,0,0,0,.26.54,3.14,3.14,0,0,0,.71.54,3.17,3.17,0,0,1,.91.74,1.9,1.9,0,0,1,.37.88,1.56,1.56,0,0,1-.15,1.12,1.31,1.31,0,0,1-.93.54A1.25,1.25,0,0,1,89.39,159.48Z" style="fill:#263238"></path><path d="M91.26,153.66l.88-.15.4,2.28.95-.16-.41-2.29.89-.15,1,5.6-.88.16-.44-2.52-.95.16.44,2.52-.88.16Z" style="fill:#263238"></path><path d="M94.62,153.07l2.4-.42.14.8-1.52.27.26,1.48,1.21-.21.14.8L96,156l.31,1.72,1.52-.26.14.8-2.4.42Z" style="fill:#263238"></path><path d="M97.53,152.56l1.3-.23a1.16,1.16,0,0,1,1.54,1.06l.06.35a1.06,1.06,0,0,1-.39,1.2v0a.71.71,0,0,1,.52.31,2.08,2.08,0,0,1,.27.77l.17,1a3.1,3.1,0,0,0,.09.38.79.79,0,0,0,.13.28l-.9.16a1.74,1.74,0,0,1-.11-.25c0-.07,0-.22-.09-.43l-.18-1a.87.87,0,0,0-.22-.51.5.5,0,0,0-.45-.08l-.31.05.42,2.4-.88.16Zm1.62,2.19a.5.5,0,0,0,.37-.2.65.65,0,0,0,.06-.48l-.08-.43a.83.83,0,0,0-.18-.43.44.44,0,0,0-.37-.07l-.4.07.28,1.6Z" style="fill:#263238"></path><path d="M100.76,152l.88-.16,1,5.61-.88.15Z" style="fill:#263238"></path><path d="M102.29,151.73l2.33-.41.14.8-1.44.25.27,1.56,1.14-.2.14.8-1.14.2.43,2.45-.88.15Z" style="fill:#263238"></path><path d="M105.05,151.24l2.33-.41.14.8-1.45.26.27,1.56,1.14-.2.14.8-1.14.2.43,2.44-.88.16Z" style="fill:#263238"></path><g style="opacity:0.30000000000000004"><path d="M100.39,145.05s-.16,3.3-.15,3S113,142.3,113,142.3l7.42,4.3-7.17-6.71Z"></path></g><g style="opacity:0.30000000000000004"><polygon points="121.24 147.41 127.75 140.6 136.38 142.14 135.05 140.01 126.65 138.51 121.24 147.41"></polygon></g><polygon points="147.95 147.96 151.48 148.05 149.85 151.18 151.54 154.28 148.01 154.44 146.17 157.45 144.27 154.47 140.75 154.38 142.37 151.25 140.69 148.15 144.21 148 146.05 144.99 147.95 147.96" style="fill:#263238"></polygon><path d="M141.43,148.21a.75.75,0,1,1-.74-.75A.75.75,0,0,1,141.43,148.21Z" style="fill:#263238"></path><path d="M152.25,154.36a.75.75,0,1,1-.75-.75A.76.76,0,0,1,152.25,154.36Z" style="fill:#263238"></path><path d="M146.93,157.72a.75.75,0,1,1-.75-.75A.76.76,0,0,1,146.93,157.72Z" style="fill:#263238"></path><path d="M146.83,144.85a.75.75,0,1,1-.75-.75A.76.76,0,0,1,146.83,144.85Z" style="fill:#263238"></path><path d="M152.3,148.11a.75.75,0,1,1-.75-.75A.75.75,0,0,1,152.3,148.11Z" style="fill:#263238"></path><path d="M141.46,154.52a.75.75,0,1,1-.75-.75A.75.75,0,0,1,141.46,154.52Z" style="fill:#263238"></path><path d="M140.5,148.77c0,.06-.32,0-.46-.34s.07-.59.11-.55,0,.24.09.48S140.52,148.71,140.5,148.77Z" style="fill:#fff"></path><path d="M145.49,145.22s-.22-.16-.17-.45.28-.43.31-.38-.07.19-.1.41S145.54,145.19,145.49,145.22Z" style="fill:#fff"></path><path d="M151,147.94c-.06,0-.09-.21.09-.37s.4-.1.39,0-.14.1-.25.2S151.08,147.94,151,147.94Z" style="fill:#fff"></path><path d="M151,154.5s-.19-.19-.06-.44.37-.29.38-.23-.12.15-.2.32S151.06,154.48,151,154.5Z" style="fill:#fff"></path><path d="M145.55,157.9c-.05,0-.17-.19-.05-.45s.37-.29.38-.23-.11.15-.19.32S145.61,157.88,145.55,157.9Z" style="fill:#fff"></path><path d="M140.21,154.74c-.05,0-.23-.18-.12-.48s.41-.33.41-.27-.14.16-.22.34S140.26,154.71,140.21,154.74Z" style="fill:#fff"></path><path d="M172.83,149s-3.7,1.34,0,6.31a6,6,0,0,0-.69,5.09c.88,3,7.12,11,14,8.23Z" style="fill:#263238"></path><path d="M91.38,75.19c-4.76-1-8.85,1.49-9.89,3.45-1.73,3.25-2.87,8.1,2.65,15.59,8.16,11.08,18,11.76,18,11.76s16.6,3.74,24.53,3.11c8.37-.65,20.43,0,30.51-10,10.53-10.4,9.93-18.42,6-22s-9-3.59-14.55-1c-4.94,2.35-7.75,5-11.25,5.72s-29.81,3.48-32.07.6C103.38,79.91,100.35,77.06,91.38,75.19Z" style="fill:#e0e0e0"></path><g style="opacity:0.30000000000000004"><path d="M144.05,90.62c-1.27-5.58-5.16-10.75-10.59-12.55a24.83,24.83,0,0,0-7.78-.94,117.19,117.19,0,0,0-17,1.17A12,12,0,0,0,103.34,80a8.48,8.48,0,0,0-3.17,5.65,25.39,25.39,0,0,0,.11,6.63,5.63,5.63,0,0,1-.17,2.77c-.5,1.22-1.76,1.92-2.65,2.89a5.62,5.62,0,0,0-1,6.44l2.51.89,43.13,2.14C144.26,102.1,145.32,96.2,144.05,90.62Z"></path></g><path d="M105.88,106.74A77.64,77.64,0,0,1,102.39,94a26.78,26.78,0,0,1,.89-13.07c.22-.63,2.16-4.86,2.83-4.81.47,0-.7,4-.46,4.39a22.67,22.67,0,0,1,2.72,13.2,59.73,59.73,0,0,1-2.49,13" style="fill:#263238"></path><path d="M141.81,88.19a19.78,19.78,0,0,0-19-19l-1,0c-11.06.19-17.09,9.69-16.59,20.75l.8,39.44,16.53,18.81L131,129.57s0-4.26,0-4.26,10.68-1.21,11.25-11.82C142.48,108.37,142.18,97.78,141.81,88.19Z" style="fill:#ffbf9d"></path><path d="M131,125.31a25.58,25.58,0,0,1-13.64-4.66s3,8.12,13.62,7.6Z" style="fill:#ff9a6c"></path><path d="M137,96.36a1.52,1.52,0,0,1-1.52,1.47A1.46,1.46,0,0,1,134,96.39a1.52,1.52,0,0,1,1.53-1.46A1.44,1.44,0,0,1,137,96.36Z" style="fill:#263238"></path><path d="M139.36,92.79c-.2.18-1.31-.71-2.94-.77s-2.86.7-3,.49.12-.44.66-.8a4.18,4.18,0,0,1,2.43-.64,4,4,0,0,1,2.33.86C139.3,92.34,139.45,92.7,139.36,92.79Z" style="fill:#263238"></path><path d="M121.33,96.36a1.51,1.51,0,0,1-1.52,1.46,1.44,1.44,0,0,1-1.51-1.43,1.51,1.51,0,0,1,1.52-1.46A1.45,1.45,0,0,1,121.33,96.36Z" style="fill:#263238"></path><path d="M123.36,92.5c-.2.19-1.31-.7-2.94-.77s-2.86.71-3,.5.13-.44.66-.8a4.12,4.12,0,0,1,2.44-.64,4.06,4.06,0,0,1,2.33.86C123.3,92.05,123.46,92.42,123.36,92.5Z" style="fill:#263238"></path><path d="M128.69,105.27a11.52,11.52,0,0,1,2.67-.37c.42,0,.82-.09.9-.37a2.16,2.16,0,0,0-.23-1.25c-.35-1-.72-2.09-1.1-3.22-1.52-4.58-2.61-8.34-2.42-8.4s1.57,3.6,3.09,8.19q.56,1.7,1.05,3.24a2.38,2.38,0,0,1,.15,1.64,1,1,0,0,1-.71.58,2.7,2.7,0,0,1-.71.07A10.76,10.76,0,0,1,128.69,105.27Z" style="fill:#263238"></path><path d="M123.59,88.52c-.24.4-1.81-.1-3.73-.22s-3.54.11-3.72-.33c-.08-.21.26-.57,1-.88a6.55,6.55,0,0,1,5.68.42C123.41,87.91,123.69,88.32,123.59,88.52Z" style="fill:#263238"></path><path d="M140.68,89c-.3.4-1.66.16-3.25.3s-2.91.55-3.26.2c-.15-.18,0-.57.57-1a5.22,5.22,0,0,1,2.58-.87,5,5,0,0,1,2.67.47C140.59,88.46,140.81,88.82,140.68,89Z" style="fill:#263238"></path><path d="M105.78,97.8c-.18-.08-7.2-2.46-7.27,4.81s7.24,5.83,7.25,5.62S105.78,97.8,105.78,97.8Z" style="fill:#ffbf9d"></path><path d="M103.57,105.46s-.13.09-.34.18a1.22,1.22,0,0,1-1,0,3.13,3.13,0,0,1-1.42-2.82,4.21,4.21,0,0,1,.37-1.81,1.49,1.49,0,0,1,1-1,.66.66,0,0,1,.75.35c.09.21,0,.35.08.37s.16-.12.1-.43a.75.75,0,0,0-.28-.45.9.9,0,0,0-.69-.19,1.79,1.79,0,0,0-1.34,1.11,4.26,4.26,0,0,0-.45,2c0,1.46.76,2.84,1.81,3.15a1.35,1.35,0,0,0,1.16-.18C103.56,105.63,103.6,105.47,103.57,105.46Z" style="fill:#ff9a6c"></path><path d="M137.12,76.16c1.17-.65-2.35-4.46-5.24-5.77-4.37-2-11-3.21-15.06-2.07C112,69.7,108,72.1,105.51,76.51A28.62,28.62,0,0,0,102.3,91.1a8.67,8.67,0,0,0,1,4.44c1,1.6,3,2.61,2.87,4.83a3.07,3.07,0,0,0,.75,2.22c1.33,1.41,3,.08,3.71-1.25,1.59-2.84,1.77-6.24,1.92-9.5a21.27,21.27,0,0,0-.46-6.9c-.35-1.21-.92-2.36-1.21-3.59a4.32,4.32,0,0,1,.52-3.62,3.59,3.59,0,0,1,.59-.6,7.57,7.57,0,0,1,7.51-1.43c4.09,1.45,11.07,3.62,12.9,2.23a11.13,11.13,0,0,0,3.25-3.3Z" style="fill:#263238"></path><path d="M123.57,106.28c.25,0,.26,1.65,1.69,2.83s3.21,1,3.23,1.22-.4.33-1.15.35a4.16,4.16,0,0,1-2.69-.92,3.65,3.65,0,0,1-1.31-2.38C123.27,106.69,123.46,106.27,123.57,106.28Z" style="fill:#263238"></path><path d="M138.62,83.85a7.44,7.44,0,0,0,3.72-2.19c-.87-2.52-2.26-6.53-2.83-8-.85-2.21-6-11.72-8.87-13.28-2.57-1.42-6.12-.12-10,.36-1.61.21-3.56-.72-5.15-.65a6.73,6.73,0,0,0-5.72,3.8L105,73.79l-2.17,5.91c1,1.12,2.06,2.09,2.64,2.64C108.75,85.44,135.12,84.58,138.62,83.85Z" style="fill:#e0e0e0"></path><path d="M95.1,76.11S108.44,87.65,123.37,87c15.63-.65,19-5.54,19-5.54l-39.48-2.64Z" style="fill:#e0e0e0"></path><polygon points="125.35 73.06 128.46 73.14 127.03 75.9 128.51 78.64 125.4 78.77 123.78 81.43 122.11 78.81 119 78.73 120.43 75.97 118.94 73.23 122.05 73.09 123.67 70.44 125.35 73.06" style="fill:#263238"></polygon><path d="M119.6,73.28a.66.66,0,0,1-1.32,0,.66.66,0,0,1,1.32,0Z" style="fill:#263238"></path><path d="M129.14,78.71a.66.66,0,1,1-.66-.66A.66.66,0,0,1,129.14,78.71Z" style="fill:#263238"></path><path d="M124.45,81.67a.66.66,0,1,1-.66-.66A.67.67,0,0,1,124.45,81.67Z" style="fill:#263238"></path><path d="M124.36,70.32a.66.66,0,1,1-.66-.66A.66.66,0,0,1,124.36,70.32Z" style="fill:#263238"></path><path d="M129.19,73.19a.66.66,0,1,1-.66-.66A.66.66,0,0,1,129.19,73.19Z" style="fill:#263238"></path><path d="M119.62,78.85a.66.66,0,1,1-.65-.66A.66.66,0,0,1,119.62,78.85Z" style="fill:#263238"></path><path d="M118.78,73.77c0,.14-.4.14-.56-.23s.14-.64.25-.55.18.24.24.36A.78.78,0,0,1,118.78,73.77Z" style="fill:#fff"></path><path d="M123.18,70.65c-.11.08-.36-.11-.31-.43s.35-.43.43-.31a.55.55,0,0,1,.08.39A.6.6,0,0,1,123.18,70.65Z" style="fill:#fff"></path><path d="M128.06,73.05c-.15,0-.25-.27,0-.46s.48-.06.45.09a.62.62,0,0,1-.11.3A.73.73,0,0,1,128.06,73.05Z" style="fill:#fff"></path><path d="M128.05,78.83c-.13.07-.35-.17-.21-.46s.47-.27.49-.13a.7.7,0,0,1,0,.36A.6.6,0,0,1,128.05,78.83Z" style="fill:#fff"></path><path d="M123.24,81.83c-.13.06-.34-.18-.2-.47s.46-.28.49-.13a.6.6,0,0,1,0,.36A.65.65,0,0,1,123.24,81.83Z" style="fill:#fff"></path><path d="M118.52,79c-.11.09-.39-.13-.26-.49s.5-.31.52-.17a.86.86,0,0,1,0,.37A.81.81,0,0,1,118.52,79Z" style="fill:#fff"></path><path d="M140.88,80.5a7.13,7.13,0,0,1-1.28.61c-.42.19-.94.4-1.56.62s-1.31.48-2.1.7a44.24,44.24,0,0,1-5.62,1.33,46.24,46.24,0,0,1-14.09.22,45.6,45.6,0,0,1-5.66-1.15c-.8-.19-1.5-.44-2.12-.64s-1.15-.39-1.58-.56a6.46,6.46,0,0,1-1.3-.58,8.32,8.32,0,0,1,1.37.39c.43.14,1,.31,1.59.47s1.33.39,2.13.56a49.53,49.53,0,0,0,5.63,1,50,50,0,0,0,14-.22,53.16,53.16,0,0,0,5.59-1.21c.79-.2,1.49-.44,2.11-.63s1.15-.37,1.57-.53A8.42,8.42,0,0,1,140.88,80.5Z" style="fill:#263238"></path><path d="M98.62,105.19a18.56,18.56,0,0,1-3.28-1.25,28.72,28.72,0,0,1-8-5.69A34.18,34.18,0,0,1,83,92.88a18.11,18.11,0,0,1-3-7.52,10.84,10.84,0,0,1,.37-4.47,12.47,12.47,0,0,1,.89-2.18,5.28,5.28,0,0,1,1.6-1.85,10.87,10.87,0,0,1,9.74-1.65h0l0,0c3.61,2.27,7.52,4.47,11.65,6.58a57.35,57.35,0,0,0,6.44,2.84,36.55,36.55,0,0,0,7,1.72,40.09,40.09,0,0,0,9.34.19,46.74,46.74,0,0,0,8.82-1.79,25.52,25.52,0,0,0,4-1.51,25.22,25.22,0,0,0,3.5-2.31,57.52,57.52,0,0,0,5.94-5.39l0,0,0,0a14.47,14.47,0,0,1,8.49-1.35,10.33,10.33,0,0,1,6.56,4.07,8.87,8.87,0,0,1,1.37,3.32,10.65,10.65,0,0,1,0,3.33A17,17,0,0,1,164,90.43a32.75,32.75,0,0,1-4.78,6.63c-.64.69-1.16,1.19-1.51,1.54-.16.16-.29.28-.39.39l-.15.12a.8.8,0,0,1,.12-.15l.37-.41c.33-.37.83-.88,1.46-1.59a34.73,34.73,0,0,0,4.64-6.65,17.18,17.18,0,0,0,1.76-5.46,10.65,10.65,0,0,0-.07-3.23,8.46,8.46,0,0,0-1.33-3.17,10,10,0,0,0-6.33-3.86,13.93,13.93,0,0,0-8.21,1.35l.07,0a58.7,58.7,0,0,1-6,5.45,26.21,26.21,0,0,1-3.56,2.37A26.87,26.87,0,0,1,136,85.27a48.46,48.46,0,0,1-8.92,1.82,40.67,40.67,0,0,1-9.47-.19,37.51,37.51,0,0,1-7.11-1.75,58.7,58.7,0,0,1-6.5-2.88c-4.14-2.12-8-4.33-11.68-6.63l.06,0a10.4,10.4,0,0,0-9.31,1.55,4.89,4.89,0,0,0-1.49,1.69,11.46,11.46,0,0,0-.86,2.1,10.25,10.25,0,0,0-.38,4.31,17.82,17.82,0,0,0,2.92,7.37A35.28,35.28,0,0,0,87.6,98a29.36,29.36,0,0,0,7.81,5.76c1,.51,1.82.84,2.37,1.06l.63.24Z" style="fill:#263238"></path><path d="M118.48,62.15s.22.52,0,1.37a4.78,4.78,0,0,1-2,2.59,8.72,8.72,0,0,1-3.07,1.15,3.28,3.28,0,0,1-1.34.12c0-.07.47-.24,1.25-.48a12.23,12.23,0,0,0,2.88-1.22,5.18,5.18,0,0,0,2-2.28C118.42,62.67,118.39,62.15,118.48,62.15Z" style="fill:#263238"></path><path d="M132.91,67.35a9.6,9.6,0,0,1-7.64-5.59,24.85,24.85,0,0,0,3.39,3.38A24,24,0,0,0,132.91,67.35Z" style="fill:#263238"></path><path d="M125.83,92.1l-.77-.35a16.87,16.87,0,0,0-9.2-.88,2.78,2.78,0,0,0-1.91,1,2.5,2.5,0,0,0-.26,1.35,15.8,15.8,0,0,0,.45,4.85,5.42,5.42,0,0,0,8.38,3.2,7.27,7.27,0,0,0,3-4.1A12.36,12.36,0,0,0,125.83,92.1Z" style="fill:#263238"></path><path d="M131.33,91.62l.77-.35a17,17,0,0,1,9.2-.89,2.77,2.77,0,0,1,1.91,1,2.58,2.58,0,0,1,.27,1.35,15.74,15.74,0,0,1-.46,4.84,5.43,5.43,0,0,1-8.37,3.21,7.26,7.26,0,0,1-3-4.11A12.48,12.48,0,0,1,131.33,91.62Z" style="fill:#263238"></path><path d="M131.44,92.35a8.64,8.64,0,0,0-3-.83,8.76,8.76,0,0,0-3,.82c-.05,0,.19-.36.71-.69a4.4,4.4,0,0,1,4.65,0C131.25,92,131.49,92.31,131.44,92.35Z" style="fill:#263238"></path><path d="M121.33,90.78l-7.42,6.28a7.14,7.14,0,0,0,1,2.64l8.69-8.45A10.28,10.28,0,0,0,121.33,90.78Z" style="fill:#455a64"></path><polygon points="138.17 90.11 132.19 98.02 133.54 99.87 140.12 90.21 138.17 90.11" style="fill:#455a64"></polygon><path d="M114.23,91.48a42.45,42.45,0,0,1-4.6,3,43.42,43.42,0,0,1-4.69,2.83A21.68,21.68,0,0,1,109.35,94,22.38,22.38,0,0,1,114.23,91.48Z" style="fill:#263238"></path></g></svg>